<?xml version="1.0" encoding="UTF-8"?> <svg xmlns="http://www.w3.org/2000/svg" width="165" height="165" viewBox="0 0 165 165" fill="none"><g id="region-of-waterloo-seeklogo.com 1"><g id="Group"><path id="Vector" d="M81.2341 92.1167C81.3101 92.2432 81.386 92.3444 81.4619 92.471C85.0554 98.0891 87.8139 102.568 88.978 104.365C89.3323 104.897 89.7372 105.529 89.8637 105.63C90.6229 106.39 91.3568 106.238 91.9136 105.934C92.3438 105.656 92.5969 105.327 92.5969 105.327C93.761 103.707 95.6843 101.176 98.1137 97.9625C104.542 89.5354 114.588 76.8314 124.154 66.7846C130.557 60.053 137.289 53.043 141.818 49.1964C146.45 45.2992 147.259 45.3498 147.259 45.3498L130.785 45.4004C124.711 45.1727 118.84 49.1458 115.373 52.1067C113.323 53.8276 110.894 56.586 109.476 58.3828C102.846 66.9365 86.2196 89.7631 86.2196 89.7631C85.7134 88.928 85.1314 88.0423 84.5746 87.1059C87.662 82.3989 91.0784 77.4135 94.4442 72.6558C100.062 64.6842 105.832 57.2946 109.73 53.0177C112.159 50.3099 113.576 49.1711 113.576 49.1711C113.576 49.1711 109.831 51.55 106.541 51.2969C105.351 51.221 100.417 51.145 100.771 44.5906L100.72 31.9878C100.72 31.9878 85.6628 39.9595 81.2847 18.3475C81.2847 18.3475 81.2341 18.145 81.2341 17.9173C81.2341 17.9173 81.2341 18.1957 81.2341 18.145C81.2341 18.145 81.2341 17.8667 81.2341 17.9173C81.2341 18.145 81.1835 18.3475 81.1835 18.3475C76.8054 39.9848 61.7226 31.9625 61.7226 31.9625L61.672 44.5653C62.0263 51.1197 57.0915 51.1957 55.9021 51.2716C52.5869 51.55 48.8668 49.1458 48.8668 49.1458C48.8668 49.1458 50.284 50.3099 52.7134 52.9924C56.6107 57.2693 62.3806 64.6588 67.9987 72.6305C71.3392 77.3628 74.7809 82.3736 77.8683 87.0806C77.2863 87.9664 76.7548 88.8521 76.2234 89.7378C76.2234 89.7378 59.5969 66.9112 52.9665 58.3575C51.5493 56.5354 49.1199 53.8023 47.07 52.0814C43.5777 49.1205 37.7318 45.1473 31.6329 45.3751L15.1582 45.3245C15.1582 45.3245 15.968 45.3245 20.5992 49.1711C25.1797 53.0177 31.886 60.0277 38.2633 66.7593C47.7786 76.8061 57.8507 89.5101 64.3039 97.9372C66.7334 101.126 68.6567 103.707 69.8208 105.301C69.8208 105.301 70.0992 105.681 70.5041 105.909C71.0355 106.213 71.7694 106.364 72.5539 105.605C72.6804 105.479 73.0854 104.922 73.4396 104.34C74.5531 102.568 77.3622 98.1144 80.9557 92.4457C81.0823 92.3444 81.1582 92.1926 81.2341 92.1167Z" fill="#006BB6"></path><g id="Group_2"><g id="Group_3"><g id="Group_4"><g id="Clip path group"><mask id="mask0_111_1323" style="mask-type:luminance" maskUnits="userSpaceOnUse" x="61" y="29" width="41" height="53"><g id="SVGID_2_"><path id="Vector_2" d="M81.3119 81.9193C89.9668 69.1647 101.481 54.917 101.481 54.917C99.7858 54.6386 97.8119 52.8418 96.9262 50.9185C96.091 49.147 96.091 46.5657 95.9645 44.3641C95.9139 43.1999 95.9645 37.4047 95.9645 37.4047C87.4108 39.6064 83.134 32.4446 81.2866 29.1294C79.4392 32.4446 75.1623 39.6064 66.6087 37.4047C66.6087 37.4047 66.6593 43.2253 66.6087 44.3641C66.4821 46.5657 66.4821 49.147 65.647 50.9185C64.7107 52.8418 62.7873 54.6133 61.0918 54.917C61.0918 54.9676 72.6064 69.2153 81.3119 81.9193Z" fill="white"></path></g></mask><g mask="url(#mask0_111_1323)"><path id="Vector_3" d="M101.481 29.1543H61.0918V81.9442H101.481V29.1543Z" fill="url(#paint0_linear_111_1323)"></path></g></g></g></g></g><path id="Vector_4" d="M94.0899 54.7386C86.9281 63.8743 84.0684 68.7585 83.9672 68.9863L84.4986 67.8728C84.4986 67.8728 86.5738 62.1282 91.8882 51.4993L90.2686 49.1964C90.2686 49.1964 86.7256 56.0546 83.3851 66.0254L83.0055 67.0377L83.2839 65.9242C86.8269 50.8414 88.3706 46.5645 88.3706 46.5645L88.2946 46.4886L86.4473 43.7808L82.2463 62.28C82.2463 62.28 82.1957 56.3835 82.7525 38.7954C82.3982 38.2133 81.563 37.0239 81.3353 36.5684C81.1075 37.0239 80.2471 38.2133 79.9181 38.7954C80.5002 56.3835 80.4495 62.28 80.4495 62.28L76.2486 43.7555L74.4012 46.4633L74.3253 46.5392C74.3253 46.5392 75.869 50.8161 79.412 65.8989L79.6903 67.0124L79.3107 66.0001C75.9196 56.0039 72.3767 49.1964 72.3767 49.1964L70.7571 51.4993C76.0715 62.1282 78.1466 67.8728 78.1466 67.8728L78.6781 68.9863C78.5262 68.7585 75.7172 63.8237 68.5554 54.7386C68.1758 55.3207 67.29 56.5607 67.29 56.5607C68.0492 57.5223 75.287 66.5315 81.3353 75.4395C87.3836 66.5569 94.6213 57.573 95.3805 56.5607C95.3552 56.5101 94.5201 55.3207 94.0899 54.7386Z" fill="#FFFDFB"></path></g><path id="Vector_5" d="M9.54104 126.964C12.1476 126.964 13.5901 128.356 13.5901 130.127C13.5901 131.848 12.097 133.215 10.4774 133.594L13.2864 137.137C14.0963 138.149 15.3363 139.187 16.4751 139.87H14.653C13.6154 139.87 12.9574 139.592 12.3754 138.909L9.99656 135.948L8.17447 133.164C9.74349 132.936 11.5656 132.202 11.5656 130.355C11.5656 128.938 10.3255 128.128 9.0349 128.204C8.57938 128.204 8.14917 128.28 7.69365 128.356V137.137C7.69365 138.073 7.56711 139.491 8.57938 139.845V139.895H4.83398V139.845C5.84625 139.491 5.6691 138.023 5.6691 137.137V129.747C5.6691 128.862 5.82095 127.394 4.83398 127.04V126.989L9.54104 126.964ZM22.3209 133.898C22.0932 132.506 21.2074 131.899 19.7903 131.899C18.4743 131.899 17.4874 132.658 17.2596 133.898H22.3209ZM17.209 135.062C17.2596 137.441 18.9045 138.833 21.1315 138.833C22.3209 138.833 23.4344 138.478 24.3708 137.795H24.4214L23.4597 139.642C22.6246 139.997 21.6883 140.149 20.7519 140.149C17.4114 140.149 15.1338 138.073 15.1338 135.34C15.1338 132.607 17.1078 130.633 20.018 130.633C22.6752 130.633 24.5226 132.557 24.4467 135.113L17.209 135.062ZM29.5334 135.973C30.7228 135.973 31.5832 135.214 31.5832 134.075C31.5832 132.81 30.495 131.924 29.1285 131.924C28.0403 131.924 27.1292 132.506 27.1292 133.645C27.1039 134.91 28.2427 135.973 29.5334 135.973ZM35.2527 130.583L34.7972 131.595C34.6453 131.949 34.5947 132.05 34.1898 132.05C33.5065 132.05 32.8486 131.899 32.1906 131.772C33.0004 132.303 33.5824 133.164 33.5824 134.151C33.5824 136.378 31.2036 137.036 29.4321 137.188C29.1538 137.188 28.6223 137.39 28.6223 137.719C28.6223 138.149 29.5587 138.099 29.8117 138.099C33.2029 138.099 34.9996 139.035 34.9996 140.958C34.9996 143.185 32.5449 144.425 29.4828 144.425C26.5978 144.425 24.0418 143.312 24.0418 141.642C24.0418 140.528 24.9275 140.073 25.9398 140.073C26.37 140.073 26.6737 140.149 27.0533 140.351C26.5472 140.478 26.3194 140.731 26.3194 141.237C26.3194 142.882 28.2933 143.16 29.5587 143.16C30.8746 143.16 33.0257 142.78 33.0257 141.161C33.0257 139.44 30.2167 139.339 29.0272 139.339L27.686 139.389C26.8509 139.389 26.2688 138.706 26.2688 137.997C26.2688 137.415 27.4329 137.162 27.8125 136.96C26.3953 136.682 25.2312 135.416 25.2312 133.948C25.2312 131.671 27.4329 130.608 29.4575 130.608L35.2527 130.583ZM37.5809 129.672C36.847 129.672 36.3156 129.09 36.3156 128.356C36.3156 127.672 36.9229 127.192 37.5809 127.192C38.2389 127.192 38.7703 127.774 38.7703 128.432C38.7703 129.09 38.2642 129.672 37.5809 129.672ZM37.2266 130.861C37.6821 130.861 38.163 130.861 38.492 130.557H38.5679V137.719C38.5679 138.655 38.4413 139.339 39.3018 139.845V139.895H36.0372V139.845C36.8723 139.339 36.7711 138.605 36.7711 137.719V133.012C36.7711 132.126 36.8976 131.392 36.0372 130.937V130.861H37.2266ZM47.8555 135.669C47.8555 133.771 46.8179 131.899 44.7427 131.899C42.9206 131.899 41.7312 133.316 41.7312 135.087C41.7312 136.909 42.8194 138.833 44.8186 138.833C46.6154 138.833 47.8555 137.441 47.8555 135.669ZM39.732 135.442C39.732 132.506 42.1108 130.583 44.9199 130.583C46.1852 130.583 47.2734 130.937 48.1844 131.747C49.1967 132.632 49.8041 133.948 49.8041 135.239C49.8041 138.048 47.4506 140.098 44.6921 140.098C42.0349 140.149 39.732 138.2 39.732 135.442ZM51.2719 130.861C51.7021 130.861 52.1576 130.861 52.5878 130.583H52.6637V132.076C53.347 131.139 54.1568 130.583 55.4475 130.583C56.5357 130.583 57.801 131.013 58.4084 131.924C58.9398 132.683 58.9145 133.923 58.9145 134.859V137.719C58.9145 138.605 58.788 139.339 59.6484 139.845V139.895H56.3585V139.845C57.1936 139.339 57.0924 138.605 57.0924 137.719V135.062C57.0924 132.987 56.5104 131.899 54.7136 131.899C52.9421 131.899 52.6384 133.088 52.6384 134.252V137.719C52.6384 138.605 52.5119 139.339 53.3723 139.845V139.895H50.0825V139.845C50.9176 139.339 50.8163 138.605 50.8163 137.719V133.063C50.8163 132.177 50.9429 131.443 50.0825 130.937V130.861H51.2719ZM71.8716 135.669C71.8716 133.771 70.8593 131.899 68.7588 131.899C66.9367 131.899 65.7473 133.316 65.7473 135.087C65.7473 136.909 66.8355 138.833 68.8348 138.833C70.6568 138.833 71.8716 137.441 71.8716 135.669ZM63.7481 135.442C63.7481 132.506 66.1269 130.583 68.936 130.583C70.2013 130.583 71.2895 130.937 72.2006 131.747C73.2128 132.632 73.8202 133.948 73.8202 135.239C73.8202 138.048 71.4667 140.098 68.7082 140.098C66.0257 140.149 63.7481 138.2 63.7481 135.442ZM77.3378 137.011C77.3378 137.972 77.2113 139.288 78.1729 139.794V139.845H74.7818V139.794C75.617 139.288 75.5157 138.554 75.5157 137.668V132.101H74.5541L75.5157 130.785V130.33C75.5157 129.216 75.4651 128.634 76.2496 127.748C77.1354 126.711 78.4513 126.483 79.742 126.483L81.0832 126.609L79.6913 128.103C79.3371 127.875 79.084 127.748 78.6791 127.748C77.515 127.748 77.2872 128.28 77.2872 129.444V130.76H79.5648L79.9191 130.633H79.995V132.354H79.9697C79.8179 132.076 79.5395 132.05 79.2358 132.05H77.3378V137.011ZM91.0541 140.478C89.2826 139.162 89.0802 139.313 88.4475 137.289L86.1446 130.051C85.7903 128.963 85.4866 127.698 84.5249 127.04V126.989H87.3846C87.3087 127.419 87.5111 128.027 87.6124 128.406L90.548 137.542L92.8509 130.076C93.2305 128.887 93.6101 127.622 92.5472 127.065V127.04H95.3309C95.2044 127.546 95.3309 128.153 95.6346 129.014L98.3677 137.517L100.569 130.355C100.924 129.241 101.582 127.647 100.038 127.116V127.065H103.075L98.9245 140.553C97.1024 139.313 97.0012 139.389 96.3432 137.39L94.1921 130.659L91.0541 140.478ZM109.958 140.149C108.642 140.073 107.377 139.693 107.377 138.099V134.986C106.795 135.29 106.137 135.441 105.479 135.593C104.543 135.821 103.48 136.024 103.48 137.213C103.48 138.453 104.593 138.833 105.631 138.833C106.086 138.833 106.567 138.681 107.048 138.554L105.884 140.022C105.53 140.073 105.201 140.149 104.846 140.149C102.872 140.149 101.506 138.883 101.506 137.264C101.506 133.594 107.352 135.29 107.352 133.189C107.352 132.253 106.188 131.924 105.454 131.924C104.441 131.924 103.682 132.303 102.796 132.683L104.112 130.709L105.378 130.583C107.503 130.583 109.123 131.19 109.123 133.543V136.479C109.123 138.023 109.174 138.605 110.768 138.782L109.958 140.149ZM113.653 136.049C113.653 136.783 113.425 138.833 115.5 138.833C115.779 138.833 116.032 138.706 116.26 138.63L115.222 140.022C115.02 140.073 114.792 140.149 114.615 140.149C111.578 140.149 111.831 137.036 111.831 136.251V132.177H110.49V131.494C112.337 131.19 112.843 129.798 112.843 128.001H113.602V130.937H115.45C115.728 130.937 115.981 130.937 116.184 130.81H116.26V132.582C115.956 132.152 115.374 132.202 114.842 132.202H113.653V136.049ZM123.852 133.898C123.624 132.506 122.738 131.899 121.321 131.899C120.005 131.899 119.018 132.658 118.79 133.898H123.852ZM118.689 135.062C118.74 137.441 120.385 138.833 122.612 138.833C123.801 138.833 124.915 138.478 125.851 137.795H125.901L124.889 139.642C124.054 139.997 123.118 140.149 122.181 140.149C118.841 140.149 116.563 138.073 116.563 135.34C116.563 132.607 118.537 130.633 121.447 130.633C124.105 130.633 125.952 132.557 125.876 135.113L118.689 135.062ZM127.901 130.861C128.356 130.861 128.837 130.861 129.09 130.583H129.166V132.076C129.596 131.19 130.507 130.583 131.469 130.583L132.152 130.633V132.455C131.924 132.228 131.57 132.152 131.267 132.152C129.773 132.152 129.141 132.911 129.141 134.961V137.668C129.141 138.605 129.014 139.288 129.875 139.794V139.845H126.61V139.794C127.445 139.288 127.344 138.554 127.344 137.668V132.961C127.344 132.076 127.47 131.342 126.61 130.886V130.81H127.875M134 126.964C134.455 126.964 134.961 127.014 135.265 126.66H135.341V137.719C135.341 138.655 135.189 139.339 136.075 139.845V139.895H132.836V139.845C133.671 139.339 133.569 138.605 133.569 137.719V129.165C133.569 128.28 133.696 127.546 132.836 127.04V126.989H134M144.654 135.669C144.654 133.771 143.616 131.899 141.541 131.899C139.719 131.899 138.53 133.316 138.53 135.087C138.53 136.909 139.618 138.833 141.617 138.833C143.414 138.833 144.654 137.441 144.654 135.669ZM136.556 135.442C136.556 132.506 138.934 130.583 141.743 130.583C143.009 130.583 144.097 130.937 145.008 131.747C146.02 132.632 146.628 133.948 146.628 135.239C146.628 138.048 144.274 140.098 141.516 140.098C138.833 140.149 136.556 138.2 136.556 135.442ZM155.637 135.669C155.637 133.771 154.625 131.899 152.524 131.899C150.702 131.899 149.513 133.316 149.513 135.087C149.513 136.909 150.601 138.833 152.6 138.833C154.397 138.833 155.637 137.441 155.637 135.669ZM147.539 135.442C147.539 132.506 149.918 130.583 152.727 130.583C153.992 130.583 155.08 130.937 155.991 131.747C157.003 132.632 157.611 133.948 157.611 135.239C157.611 138.048 155.257 140.098 152.499 140.098C149.816 140.149 147.539 138.2 147.539 135.442Z" fill="#FFFDFB"></path></g><defs><linearGradient id="paint0_linear_111_1323" x1="81.2939" y1="40.6618" x2="81.2939" y2="74.5937" gradientUnits="userSpaceOnUse"><stop stop-color="#F3D32B"></stop><stop offset="0.0563539" stop-color="#EAD12E"></stop><stop offset="0.1466" stop-color="#D3CC37"></stop><stop offset="0.2588" stop-color="#ADC346"></stop><stop offset="0.2753" stop-color="#A7C248"></stop><stop offset="0.4075" stop-color="#8ABD4E"></stop><stop offset="0.5393" stop-color="#69B755"></stop><stop offset="0.5721" stop-color="#5FB555"></stop><stop offset="0.6809" stop-color="#42AF55"></stop><stop offset="0.7893" stop-color="#2EAA55"></stop><stop offset="0.8962" stop-color="#21A855"></stop><stop offset="1" stop-color="#1DA755"></stop></linearGradient></defs></svg> 